<?xml version="1.0" encoding="utf-8"?>
<!-- Generator: Adobe Illustrator 25.0.1, SVG Export Plug-In . SVG Version: 6.00 Build 0)  -->
<svg version="1.1" id="Layer_1" xmlns="http://www.w3.org/2000/svg" xmlns:xlink="http://www.w3.org/1999/xlink" x="0px" y="0px"
	 viewBox="0 0 1077.1 1920" style="enable-background:new 0 0 1077.1 1920;" xml:space="preserve">
<style type="text/css">
	.st0{fill:url(#SVGID_1_);}
</style>
<linearGradient id="SVGID_1_" gradientUnits="userSpaceOnUse" x1="536.4061" y1="1052.579" x2="918.2965" y2="1052.579">
	<stop  offset="0.2007" style="stop-color:#6DF7F7"/>
	<stop  offset="0.7185" style="stop-color:#A5E5FA"/>
	<stop  offset="1" style="stop-color:#BEDDFC"/>
</linearGradient>
<path class="st0" d="M623.9,869.6c-31,0-66.2,16.2-87.5,40.6v93.9c21.3,24.4,56.5,40.6,87.5,40.6c8.3,0,16.3-1.2,23.9-3.4v130.7
	h63.6V957.1C711.4,908.8,672.2,869.6,623.9,869.6z M830.8,869.6c-48.3,0-87.5,39.2-87.5,87.5v214.8h63.6v-130.7
	c7.6,2.1,15.6,3.4,23.9,3.4c31,0,66.2-16.2,87.5-40.6v-93.9C897,885.8,861.8,869.6,830.8,869.6z M584.1,933.2
	c8.8,0,15.9,7.1,15.9,15.9s-7.1,15.9-15.9,15.9s-15.9-7.1-15.9-15.9S575.4,933.2,584.1,933.2z M870.6,933.2
	c8.8,0,15.9,7.1,15.9,15.9s-7.1,15.9-15.9,15.9c-8.8,0-15.9-7.1-15.9-15.9S861.8,933.2,870.6,933.2z M687.6,949.2c4.4,0,8,3.6,8,8
	s-3.6,8-8,8s-8-3.6-8-8S683.2,949.2,687.6,949.2z M767.1,949.2c4.4,0,8,3.6,8,8s-3.6,8-8,8s-8-3.6-8-8S762.7,949.2,767.1,949.2z
	 M647.8,1203.7v15.9c0,8.8,7.1,15.9,15.9,15.9h31.8c8.8,0,15.9-7.1,15.9-15.9v-15.9H647.8z M743.3,1203.7v15.9
	c0,8.8,7.1,15.9,15.9,15.9H791c8.8,0,15.9-7.1,15.9-15.9v-15.9H743.3z"/>
</svg>
