<?xml version="1.0" encoding="utf-8"?>
<!-- Generator: Adobe Illustrator 25.0.1, SVG Export Plug-In . SVG Version: 6.00 Build 0)  -->
<svg version="1.1" id="Layer_1" xmlns="http://www.w3.org/2000/svg" xmlns:xlink="http://www.w3.org/1999/xlink" x="0px" y="0px"
	 viewBox="0 0 1077.1 1920" style="enable-background:new 0 0 1077.1 1920;" xml:space="preserve">
<style type="text/css">
	.st0{fill:url(#SVGID_1_);}
</style>
<linearGradient id="SVGID_1_" gradientUnits="userSpaceOnUse" x1="398.7083" y1="1033.0786" x2="849.5576" y2="1033.0786">
	<stop  offset="0.1974" style="stop-color:#CDDC39"/>
	<stop  offset="0.4533" style="stop-color:#D9E469"/>
	<stop  offset="0.8246" style="stop-color:#EAF0AA"/>
	<stop  offset="1" style="stop-color:#F0F4C3"/>
</linearGradient>
<path class="st0" d="M624.1,798.1c-41.5,0-75.1,33.6-75.1,75.1s33.6,75.1,75.1,75.1c41.5,0,75.1-33.6,75.1-75.1
	S665.6,798.1,624.1,798.1z M436.3,967.2c-10.4,0-18.8,8.4-18.8,18.8v56.4c-11.3,0-18.8,7.5-18.8,18.8v37.6
	c0,11.3,7.5,18.8,18.8,18.8v75.1c0,10.4,8.4,18.8,18.8,18.8c52.9,0,98.3,7,129.1,16.7c15.4,4.9,27.1,10.6,33.7,15.3
	c6.6,4.8,6.3,7.2,6.3,5.5c-0.1,10.4,8.1,18.9,18.5,19.1s18.9-8.1,19.1-18.5c0-0.2,0-0.4,0-0.5c0,1.7-0.3-0.7,6.3-5.5
	c6.6-4.8,18.3-10.5,33.7-15.3c30.8-9.8,76.3-16.7,129.1-16.7c10.4,0,18.8-8.4,18.8-18.8v-75.1c11.3,0,18.8-7.5,18.8-18.8v-37.6
	c0-11.3-7.5-18.8-18.8-18.8V986c0-10.4-8.4-18.8-18.8-18.8c-67.5,0-116.4,9.7-148.8,19.6c-19,5.8-31,11.3-39.1,15.4
	c-8.1-4.2-20.1-9.6-39.1-15.4C552.7,976.9,503.8,967.2,436.3,967.2z M455.1,1006.1c52.8,1.7,93.5,8.8,118.9,16.7
	c22.7,7,27.5,10.7,31.4,13v81.8v86.3c-8.5-4.2-17.9-8.1-28.6-11.4c-31.6-10-74-15.8-121.7-17.3v-62.9c11.2-6.5,18.8-18.5,18.8-32.3
	s-7.6-25.8-18.8-32.3V1006.1z M793.2,1006.1v41.5c-11.2,6.5-18.8,18.5-18.8,32.3c0,13.8,7.6,25.8,18.8,32.3v62.8
	c-47.6,1.5-90.1,7.3-121.7,17.3c-10.7,3.4-20.2,7.2-28.6,11.4v-86.3v-81.8c3.9-2.3,8.7-6,31.4-13
	C699.7,1014.9,740.4,1007.8,793.2,1006.1z"/>
</svg>
