<?xml version="1.0" encoding="utf-8"?>
<!-- Generator: Adobe Illustrator 25.0.1, SVG Export Plug-In . SVG Version: 6.00 Build 0)  -->
<svg version="1.1" id="Layer_1" xmlns="http://www.w3.org/2000/svg" xmlns:xlink="http://www.w3.org/1999/xlink" x="0px" y="0px"
	 viewBox="0 0 1077.1 1920" style="enable-background:new 0 0 1077.1 1920;" xml:space="preserve">
<style type="text/css">
	.st0{fill:url(#SVGID_1_);}
</style>
<g>
	<linearGradient id="SVGID_1_" gradientUnits="userSpaceOnUse" x1="475.1518" y1="845.8627" x2="907.7626" y2="1208.8663">
		<stop  offset="0.1993" style="stop-color:#FFCA28"/>
		<stop  offset="0.4581" style="stop-color:#FFD659"/>
		<stop  offset="0.8261" style="stop-color:#FFE69A"/>
		<stop  offset="1" style="stop-color:#FFECB3"/>
	</linearGradient>
	<path class="st0" d="M913.2,874.2c-0.9,0-7.2,0-12.2,0.3v-12c0-14.6-8.7-25.5-21.7-25.5c-1.5,0-2.4,0.1-3.9,0.4
		c-1.1,0.2-103.5,21.2-183.9,85.5c-15.6-12.4-33-23.3-48.1-32.6v-12.7c0-22.4-2.7-45.3-37.1-57.3L562.4,805
		c-4.6-1.7-9.1-2.5-13.4-2.5c-20.6,0-32.9,18.6-32.9,36.7c0,0.1,0,0.1,0,0.2c-5.1-1.3-8.1-1.9-8.3-1.9c-1.5-0.3-4.9-0.4-6.4-0.4
		c-13,0-24.8,11-24.8,25.5v12c-5.1-0.3-11.3-0.3-12.2-0.3c-15.5,0-28.2,12.6-28.2,28.1V1124c0,13.7,15.2,25.2,25.3,27.6v24.2
		c0,15.5,14.1,29.1,29.6,29.1h159c4.5,5.1,14.2,15.2,25.5,15.2h32.5c11.3,0,21-10.1,25.5-15.2h165.1c15.5,0,27.4-13.6,27.4-29.1
		v-26.1c10.1-4.4,15.2-14.3,15.2-25.7V902.4C941.4,886.9,928.8,874.2,913.2,874.2z M898.8,1184.7H742.5
		c66.6-25.3,133.3-31.5,158.5-32.4v23.5C901,1179.4,902.3,1184.7,898.8,1184.7z M481.8,1175.8v-23.3c35.4,1.3,97.6,6.9,159.7,32.1
		H491.2C487.7,1184.7,481.8,1179.4,481.8,1175.8z M461.6,902.4c0-3.5,1.1-6.4,4.7-6.4c0.2,0,5.4,0,10.5,0.4v187.8
		c0,14.7,12.1,28.2,25.1,30.8c6.7,1.3,47.7,9.8,95,31.6c-64.3-15.4-120.2-16.1-129.1-16.1c-3.5,0-6.1-2.9-6.1-6.4V902.4z
		 M502.3,858.8c0.4,0.1,14.8,3,35,9.8v141.2c0,3.5,3.1,6.7,6.1,8.5c3,1.8,7.4,1.8,10.4,0.1l34.8-19l37.5,44.6
		c1.9,2.3,4.8,3.5,7.7,3.5c1.1,0,2.2-0.2,3.3-0.6c3.9-1.4,6.4-5.1,6.4-9.3V915.5c10.1,7.9,25.3,16.7,40.4,26.5v1.5v227
		c-75.8-56.2-164.2-74.8-174.7-76.9c-2.3-0.4-7.2-4.6-7.2-9.5V862.5C502,860.1,501.7,858.9,502.3,858.8z M549.1,822.3
		c2,0,4.3,0.4,6.8,1.3l43.7,15.4c20.6,7.2,23.6,17.3,23.6,38.6v132.9l-24.7-30c-1.9-2.3-4.5-3.5-7.4-3.5c-1.6,0-4.2,0.4-5.7,1.2
		L557.5,993V863c0-8.6,1-28.7-19.9-28.7c-0.7,0-1,0.1-1.7,0.3C537.2,828.6,541.6,822.3,549.1,822.3z M880.8,1084.1
		c0,5-2.4,9-4.6,9.5c-10.4,2.1-96.4,20.7-172.1,76.9v-227V942c75.8-62.7,175.4-83.1,176.6-83.3c0.3,0.2,0.2,1.4,0.2,3.8V1084.1z
		 M915.2,1130.4c-9,0-65,0.7-129.2,16.1c47.2-21.8,86.2-30.3,92.9-31.6c13-2.6,22.1-16.1,22.1-30.8V896.3c5.1-0.3,12.8-0.4,13-0.4
		c3.5,0,7.2,2.9,7.2,6.4V1124C921.2,1127.5,918.7,1130.4,915.2,1130.4z"/>
</g>
</svg>
