<?xml version="1.0" encoding="utf-8"?>
<!-- Generator: Adobe Illustrator 25.0.1, SVG Export Plug-In . SVG Version: 6.00 Build 0)  -->
<svg version="1.1" id="Layer_1" xmlns="http://www.w3.org/2000/svg" xmlns:xlink="http://www.w3.org/1999/xlink" x="0px" y="0px"
	 viewBox="0 0 1077.1 1920" style="enable-background:new 0 0 1077.1 1920;" xml:space="preserve">
<style type="text/css">
	.st0{fill:#FFFFFF;}
	.st1{font-family:'Poppins-Bold';}
	.st2{font-size:26px;}
	.st3{fill:#FFA940;}
</style>
<text transform="matrix(1 0 0 1 348.5148 1273.0823)" class="st0 st1 st2">25 kudos</text>
<path class="st3" d="M310.6,1237.2c-0.8,0-1.6,0.3-2.2,0.9l-11.3,11.3c-0.8,0.8-1.2,1.8-1.2,2.9v20.4c0,2.3,1.8,4.1,4.1,4.1h18.4
	c1.6,0,3.1-1,3.8-2.5l6.2-14.3c0.2-0.5,0.3-1.1,0.3-1.6v-4.1c0-2.3-1.8-4.1-4.1-4.1h-13l2-9.3c0.2-1-0.1-2.1-0.8-2.8
	C312.2,1237.5,311.4,1237.2,310.6,1237.2z M285.7,1252.3c-1.1,0-2,0.9-2,2v20.5c0,1.1,0.9,2,2,2h4.1c1.1,0,2-0.9,2-2v-20.5
	c0-1.1-0.9-2-2-2H285.7z"/>
<path class="st3" d="M561.1,1284.3c0,1.4,1.7,2.1,2.7,1.1l6.3-6.3h31.5c2.5,0,4.5-2,4.5-4.5v-27c0-2.5-2-4.5-4.5-4.5h-36
	c-2.5,0-4.5,2-4.5,4.5L561.1,1284.3z M579.1,1266.1c0-1.2,1-2.3,2.3-2.3h11.3c1.2,0,2.3,1,2.3,2.3s-1,2.3-2.3,2.3h-11.3
	C580.1,1268.4,579.1,1267.4,579.1,1266.1z M572.4,1257.1c0-1.2,1-2.3,2.3-2.3h18c1.2,0,2.3,1,2.3,2.3s-1,2.3-2.3,2.3h-18
	C573.4,1259.4,572.4,1258.4,572.4,1257.1z"/>
</svg>
